<?xml version="1.0"?>
<svg xmlns="http://www.w3.org/2000/svg" xmlns:xlink="http://www.w3.org/1999/xlink" xmlns:svgjs="http://svgjs.com/svgjs" version="1.1" width="512" height="512" x="0" y="0" viewBox="0 0 512 512" style="enable-background:new 0 0 512 512" xml:space="preserve" class=""><g><path xmlns="http://www.w3.org/2000/svg" d="m497 0h-40c-8.285156 0-15 6.714844-15 15s6.714844 15 15 15h5v65c0 35.839844-29.160156 65-65 65s-65-29.160156-65-65v-65h5c8.285156 0 15-6.714844 15-15s-6.714844-15-15-15h-40c-8.285156 0-15 6.714844-15 15s6.714844 15 15 15h5v65c0 46.972656 34.269531 86.085938 79.121094 93.664062-2.976563 23.023438-13.367188 43.746094-28.6875 59.703126-29.613282-62.796876-93.527344-106.367188-167.433594-106.367188-102.007812 0-185 82.988281-185 185s82.992188 185 185 185c102.011719 0 185-82.988281 185-185 0-16.632812-2.21875-32.753906-6.355469-48.097656 26.214844-22.148438 43.972657-54.007813 47.648438-89.976563 45.625-6.914062 80.707031-46.398437 80.707031-93.925781v-65h5c8.285156 0 15-6.714844 15-15s-6.714844-15-15-15zm-423 317c8.269531 0 15 6.730469 15 15s-6.730469 15-15 15h-42.710938c-.847656-6.550781-1.289062-13.222656-1.289062-20 0-38.078125 13.8125-72.988281 36.675781-100h53.324219c16.542969 0 30 13.457031 30 30s-13.457031 30-30 30h-46c-8.285156 0-15 6.714844-15 15s6.714844 15 15 15zm229.324219 110h-77.324219c-8.269531 0-15-6.730469-15-15s6.730469-15 15-15h97.269531c-5.484375 10.785156-12.195312 20.84375-19.945312 30zm36.675781-100c0 13.828125-1.828125 27.234375-5.242188 40h-108.757812c-24.8125 0-45 20.1875-45 45s20.1875 45 45 45h43.3125c-24.285156 15.804688-53.242188 25-84.3125 25-67.980469 0-125.875-43.992188-146.722656-105h35.722656c24.8125 0 45-20.1875 45-45 0-5.257812-.90625-10.308594-2.570312-15h3.570312c33.085938 0 60-26.914062 60-60s-26.914062-60-60-60h-19.3125c24.285156-15.804688 53.242188-25 84.3125-25 64.324219 0 119.621094 39.390625 143.042969 95.316406-12.035157 6.8125-25.523438 11.332032-39.875 12.980469-6.386719-17.09375-22.875-29.296875-42.167969-29.296875-24.8125 0-45 20.1875-45 45s20.1875 45 45 45c19.773438 0 36.597656-12.824219 42.621094-30.589844 17.25-1.597656 33.574218-6.425781 48.363281-13.875 1.972656 9.855469 3.015625 20.039063 3.015625 30.464844zm-79-31c0 8.269531-6.730469 15-15 15s-15-6.730469-15-15 6.730469-15 15-15 15 6.730469 15 15zm0 0" fill="#f27405" data-original="#000000" style="" class=""/></g></svg>
